<svg xmlns="http://www.w3.org/2000/svg" version="1.1" xmlns:xlink="http://www.w3.org/1999/xlink" width="1024" height="1024"><svg width="1024" height="1024" viewBox="0 0 1024 1024" fill="none" xmlns="http://www.w3.org/2000/svg">
<g clip-path="url(#clip0_7_267)">
<rect width="1024" height="1024" fill="#07426B"></rect>
<path d="M-184.833 -184.833H-122.482H-120.281H216.946H219.108H274.226H276.511H331.371H333.19H502.211H504.249H1184.14H1186.69H1196.69V-127.838V-126.187C1194.61 -127.447 1178.1 -126.405 1174.44 -126.511C1160.04 -126.928 1145.65 -127.198 1131.23 -127.15C1108.59 -105.158 1087.31 -83.2459 1065.08 -60.9109L934.173 71.3913L868.844 137.368C858.635 147.595 841.381 163.89 832.226 174.456L830.224 172.555C753.76 100.264 665.306 56.5709 560.233 43.8323C542.17 41.6413 525.124 41.1948 507.004 40.651L506.69 32.6709C504.108 36.69 507.538 37.9932 504.031 40.7145C481.31 41.3324 463.148 42.0528 440.433 45.2341C336.625 59.7711 247.56 106.924 173.469 180.275L172.346 181.684C143.979 154.404 114.845 124.232 86.7594 96.2493L-136.26 -126.475C-152.173 -126.312 -168.539 -127.198 -184.833 -127.15V-127.838V-175.401V-177.364V-184.833Z" fill="#07426B"></path>
<path d="M953.188 -126.161C943.255 -126.259 846.713 -127.141 842.741 -125.774L842.261 -123.03C841.508 -124.39 841.733 -123.623 842.169 -125.547C845.357 -127.822 873.975 -126.789 880.273 -126.791L957.665 -126.831L1024.75 -126.856C1037.92 -126.855 1052.9 -127.181 1065.88 -126.463C1063.23 -125.745 1044.74 -126.209 1040.95 -126.194L954.975 -126.225C955.226 -116.913 954.33 -77.5161 955.88 -71.795C957.66 -70.3401 960.729 -70.8483 963.742 -70.6309C961.505 -70.0661 957.571 -70.3933 955.084 -70.4556C955.358 -58.7569 954.114 -22.7222 955.867 -13.7774C967.538 -13.0084 980.633 -13.7909 992.407 -13.4712C996.459 -13.3605 1002.62 -13.9177 1006.26 -13.2823C1003 -12.7521 993.67 -13.0084 989.877 -13.0084L955.16 -13.0016C955.134 1.4895 954.674 28.0204 955.592 43.8526C955.955 44.2776 956.318 44.7012 956.682 45.1249L953.715 48.2859L952.486 45.8561C953.854 27.8437 952.86 8.14078 953.016 -9.94719C953.19 -30.1223 953.233 -50.1461 953.158 -70.322C944.704 -70.3014 936.534 -70.3722 928.083 -70.5877C934.868 -71.1085 946.033 -70.8125 953.132 -70.83C953.722 -88.0928 953.142 -108.534 953.188 -126.161Z" fill="#07426B"></path>
<path d="M504.031 40.7144C503.726 15.4895 504.364 -9.81909 503.888 -35.0548C503.857 -36.7021 504.599 -38.2509 505.597 -39.511C508.061 -36.0734 507.089 24.0404 506.69 32.6708C504.108 36.6899 507.538 37.9932 504.031 40.7144Z" fill="#FDFDFE"></path>
<path d="M94.6182 100.579L96.5339 100.357C97.4311 101.736 97.0439 101.055 97.7171 102.389L98.6413 102.45C100.758 102.602 102.056 102.419 103.679 103.671C104 106.089 103.908 107.6 105.005 109.649C105.096 108.271 105.146 104.216 105.732 103.348C106.671 105.147 106.273 110.132 106.237 112.451C101.775 108.269 98.6939 105.133 94.6182 100.579Z" fill="#07426B"></path>
<path d="M974.712 504.778C983.528 504.781 1042.12 503.944 1046.44 505.546L1046.69 506.474C1045.67 507.329 1044.17 508.201 1042.79 508.183C1020.24 507.893 997.359 508.425 974.832 507.998C975.287 506.071 975.21 506.85 974.712 504.778Z" fill="#FDFDFE"></path>
<path d="M983.905 800.3C986.039 800.773 986.085 800.678 987.918 801.793C988.132 803.991 987.835 803.586 986.405 805.965C983.539 805.319 984.086 805.864 982.217 804.102C982.396 801.568 982.136 802.823 983.905 800.3Z" fill="#07426B"></path>
<path d="M503.924 47.8298L507.027 47.7125C608.418 48.5867 699.872 78.902 781.377 139.8C797.956 152.186 810.796 163.91 826.029 177.855L826.927 178.876C907.823 260.209 956.679 358.88 965.952 473.471C966.644 482.033 966.67 491.444 967.842 499.823C968.835 503.847 967.327 504.908 967.711 508.19C967.359 541.708 965.64 569.85 959.388 602.951C942.436 692.7 898.555 778.124 833.432 842.324L831.871 843.908C817.132 858.135 802.889 871.4 786.485 883.947C707.642 944.247 609.716 978.341 510.369 978.742C509.192 978.747 508.239 978.685 507.08 978.465L504.025 978.461C502.497 978.694 501.22 978.671 499.68 978.657C380.623 977.464 264.51 928.947 180.64 844.73L178.919 843.118C86.8133 748.906 44.6823 639.16 43.7986 508.019L43.7999 505.13C46.3714 383.255 92.3138 274.07 177.078 186.568L178.246 185.316L182.969 180.729C248.407 117.466 323.653 75.0812 413.257 56.83C441.062 51.1676 475.538 47.3536 503.924 47.8298Z" fill="#FDFDFE"></path>
<path d="M826.927 178.876C907.823 260.209 956.679 358.88 965.952 473.471C966.644 482.033 966.669 491.444 967.842 499.823C968.835 503.847 967.327 504.908 967.711 508.19C967.359 541.708 965.64 569.85 959.388 602.951C942.436 692.7 898.555 778.124 833.432 842.324L831.871 843.908C829.292 840.313 809.1 820.32 805.343 816.743L807.475 814.054C807.468 812.635 807.545 813.196 806.819 811.842L804.803 811.395C801.387 810.545 779.731 786.799 775.454 782.683C755.759 763.727 737.18 741.978 716.811 723.787C728.044 717.835 740.836 711.812 752.324 706.2C766.192 712.995 780.965 722.475 794.774 729.687C800.946 732.911 810.507 739.161 816.944 740.692L817.829 739.992C818.647 737.674 819.137 734.934 819.112 732.465C818.755 694.872 819.655 657.223 818.876 619.647C818.637 608.176 811.63 589.817 801.174 583.607C786.263 574.75 765.876 566.762 749.8 559.525L635.963 508.252C634.046 508.038 631.794 505.965 630.122 504.692C623.99 504.04 558.188 472.976 546.279 467.829C547.049 465.625 554.69 458.9 556.918 456.77L555.546 455.625C558.099 451.759 562.651 447.727 566.082 444.431C560.761 440.591 552.565 435.185 548.876 430.056L549.197 429.273C554.41 430.583 563.578 438.144 568.216 441.63C571.952 437.577 581.47 426.745 585.714 424.853C588.209 423.944 607.534 402.931 611.518 399.278L613.51 400.383L663.524 424.716C672.338 428.993 681.134 433.259 689.984 437.51C720.549 452.188 767.745 453.111 785.911 418.973C794.399 403.02 795.316 386.642 790.286 369.541C782.926 344.512 763.561 337.077 741.943 327.057C728.855 320.743 715.014 314.203 702.243 307.47L700.62 306.624C704.745 303.18 709.084 298.178 712.901 294.295C741.004 265.704 768.363 236.396 796.962 208.294C794.173 205.863 791.518 204.467 791.738 200.53L793.062 200.109C795.632 200.865 797.198 203.056 799.079 205.067L800.481 206.18C806.027 201.677 822.963 184.366 826.927 178.876Z" fill="#07426B"></path>
<path d="M925.185 507.909L890.778 507.934C886.398 507.953 873.402 508.732 870.606 506.786L870.585 505.664C873.119 503.956 918.176 504.618 924.895 504.618L925.185 507.909Z" fill="#FDFDFE"></path>
<path d="M630.122 504.692C636.522 504.663 680.106 503.737 683.166 505.793C678.216 510.83 645.368 506.303 635.963 508.252C634.046 508.038 631.794 505.965 630.122 504.692Z" fill="#FDFDFE"></path>
<path d="M967.842 499.823C968.835 503.847 967.327 504.908 967.711 508.19C956.56 507.501 941.101 507.934 929.633 507.908L929.745 504.871C940.012 504.596 957.211 505.318 966.544 504.423C967.884 503.07 967.528 502.216 967.842 499.823Z" fill="#FDFDFE"></path>
<path d="M796.962 208.294C794.173 205.863 791.518 204.467 791.738 200.53L793.062 200.109C795.632 200.865 797.198 203.056 799.079 205.067L800.481 206.18C804.034 209.557 811.135 215.574 811.866 220.214C808.546 221.262 800.821 212.305 798.485 209.908L796.962 208.294Z" fill="#FDFDFE"></path>
<path d="M924.895 504.617C925.008 501.819 924.703 499.84 926.387 497.718L927.632 497.684C929.78 500.539 929.026 500.932 929.745 504.871L929.633 507.908C929.206 513.829 930.409 516.688 927.666 522.693L926.897 522.407C926.02 519.849 925.438 518.458 925.372 515.78L925.185 507.909L924.895 504.617Z" fill="#FDFDFE"></path>
<path d="M799.868 507.826C765.694 508.484 731.361 507.443 697.175 508.108C696.215 508.127 695.815 507.839 695.086 507.308L694.934 505.748C697.309 503.518 706.008 504.609 709.598 504.651C716.471 504.731 723.32 504.631 730.185 504.622L799.869 504.721L799.868 507.826Z" fill="#FDFDFE"></path>
<path d="M845.458 761.233C847.624 762.208 846.891 761.458 847.935 763.335C846.069 770.571 828.672 789.783 823.164 797.032C822.098 796.564 821.569 796.034 820.61 795.315C820.152 792.573 825.916 787.464 827.847 784.825C830.204 781.601 832.956 778.41 835.361 775.152C838.777 770.523 842.139 765.926 845.458 761.233Z" fill="#FDFDFE"></path>
<path d="M869.94 722.068C872.676 722.813 871.877 722.025 872.967 723.902C872.008 729.669 863.657 741.798 860.195 747.013L859.063 747.195L857.696 746.08C857.559 742.917 867.422 726.68 869.94 722.068Z" fill="#FDFDFE"></path>
<path d="M921.035 449.549C922.749 449.676 922.704 449.578 924.184 450.401C926.81 455.487 927.473 471.395 927.954 477.957C926.497 477.837 925.977 477.678 924.549 477.318C923.423 475.16 921.163 453.211 921.035 449.549Z" fill="#FDFDFE"></path>
<path d="M826.78 235.757C830.831 237.579 842.033 252.108 844.847 256.356C846.029 258.141 845.498 258.229 844.885 260.136C840.479 258.976 829.161 242.925 825.981 238.533C825.379 237.703 826.306 236.688 826.78 235.757Z" fill="#FDFDFE"></path>
<path d="M880.373 314.906C883.852 316.825 891.124 334.581 892.704 339.389C893.081 340.532 892.21 341.053 891.498 342.021C888.346 340.068 878.856 320.206 878.723 316.649L880.373 314.906Z" fill="#FDFDFE"></path>
<path d="M855.7 274.174C860.033 275.417 871.987 294.904 870.798 299.232C865.933 298.517 858.425 282.117 855.272 277.663C854.392 276.419 855.196 275.384 855.7 274.174Z" fill="#FDFDFE"></path>
<path d="M907.276 635.514C909.425 636.29 908.633 635.606 910.022 637.201C910.292 643.215 904.372 657.736 902.043 663.605C900.892 663.366 900.807 663.197 899.728 662.652C898.752 659.417 905.695 640.494 907.276 635.514Z" fill="#FDFDFE"></path>
<path d="M897.35 358.465C899.073 358.612 899.056 358.498 900.512 359.37C904.064 364.688 908.516 379.119 909.833 385.611L907.032 385.247C904.141 382.165 898.07 363.193 897.35 358.465Z" fill="#FDFDFE"></path>
<path d="M924.545 542.473C926.466 542.972 925.839 542.589 927.27 543.859C928.362 548.972 926.226 566.373 924.623 571.469C923.23 570.951 923.366 570.993 922.096 570.257C920.853 566.202 923.707 547.491 924.545 542.473Z" fill="#FDFDFE"></path>
<path d="M891.483 679.472C893.018 680.148 892.97 680.037 893.905 681.411C893.395 687.097 886.124 700.558 883.364 706.113C881.317 705.181 882.084 705.86 880.846 704.171C881.2 699.442 889.069 684.415 891.483 679.472Z" fill="#FDFDFE"></path>
<path d="M912.296 403.762C913.645 403.958 914.938 403.842 915.465 404.968C917.848 410.06 921.546 426.011 920.91 430.984L918.575 430.651C916.466 427.85 911.933 407.414 912.296 403.762Z" fill="#FDFDFE"></path>
<path d="M918.47 589.831C920.595 590.392 919.768 589.84 921.131 591.381C921.557 597.324 917.886 612.181 915.679 617.96L913.511 616.789C912.522 613.527 917.202 594.001 918.47 589.831Z" fill="#FDFDFE"></path>
<path d="M828.523 504.843C836.572 504.676 851.342 503.862 859.302 505.334C860.238 505.508 860.365 506.612 860.863 507.804C856.082 508.066 830.831 508.904 828.334 506.864L828.523 504.843Z" fill="#FDFDFE"></path>
<path d="M177.078 186.568C181.33 191.202 201.577 210.346 203.061 212.574C202.388 215.035 202.307 213.888 203.095 216.142L204.625 216.855C206.57 217.043 207.326 217.189 208.795 218.604C215.126 224.701 221.425 231.017 227.644 237.221L267.058 276.904C279.046 289.001 298.54 306.84 309.04 318.758C297.023 324.711 280.708 333.489 268.725 338.735L224.506 314.349C220.455 312.077 198.354 298.765 195.434 299.306C194.24 300.135 193.18 300.711 193.131 302.587C192.856 313.314 192.94 324.852 192.921 335.545L192.861 386.984C192.849 414.198 190.063 442.928 219.592 457.277C228.626 461.669 237.845 465.581 247.032 469.65L296.868 491.824C316.401 500.573 335.61 509.514 355.203 518.245L442.483 556.873C446.673 558.692 447.916 559.895 452.638 561.918C448.061 568.424 429.443 587.598 422.859 594.089C409.01 607.738 396.121 621.486 382.625 635.395L380.56 634.351L341.904 615.775C312.471 601.551 286.743 589.037 253.241 600.126C213.53 613.271 207.373 667.637 234.109 695.489C246.018 707.896 275.755 719.319 291.972 727.4C287.162 732.245 281.655 738.048 276.754 742.678L274.386 745.113L236.454 783.446C232.483 787.538 212.092 809.784 208.487 811.776C205.958 810.301 206.685 810.194 204.371 810.522C203.127 812.703 203.699 813.279 205.332 815.266C198.495 823.857 184.916 834.424 178.919 843.118C86.8133 748.906 44.6823 639.16 43.7986 508.019L43.7999 505.13C46.3714 383.255 92.3138 274.07 177.078 186.568Z" fill="#07426B"></path>
<path d="M81.0916 505.026L82.0617 504.429C83.1585 501.15 82.3801 497.852 83.1518 493.855C84.7815 492.819 83.9181 493.028 85.8406 493.447C87.1884 495.43 86.5894 501.885 87.0387 505.075L87.071 507.918C85.5627 513.835 89.2162 529.701 85.4237 533.708L83.8223 533.473C82.1588 531.227 82.3099 512.464 82.2586 508.017C82.1197 506.312 82.0968 506.435 81.0916 505.026Z" fill="#FDFDFE"></path>
<path d="M43.7999 505.13L81.0916 505.026C82.0967 506.435 82.1196 506.312 82.2586 508.017L43.7986 508.019L43.7999 505.13Z" fill="#FDFDFE"></path>
<path d="M87.0387 505.075C92.5999 504.967 116.142 503.534 119.892 506.257L119.858 507.401C115.788 508.432 92.7105 508.002 87.0711 507.917L87.0387 505.075Z" fill="#FDFDFE"></path>
<path d="M274.386 745.113C274.197 741.256 274.143 729.138 274.85 725.673C276.757 729.072 275.46 738.527 276.754 742.678L274.386 745.113Z" fill="#07426B"></path>
<path d="M199.506 501.354L200.24 501.045C203.493 502.023 200.844 504.713 203.969 504.727C208.382 504.746 213.395 504.686 217.803 504.682L264.32 504.628C269.883 504.615 286.721 503.503 290.523 505.95L290.592 506.947C287.721 508.596 245.292 507.959 238.461 507.954L202.184 507.934C202.304 511.025 203.155 515.971 200.601 518.081L199.475 517.468C197.914 514.516 198.354 511.374 198.389 507.912C187.546 507.92 176.719 507.869 165.883 508.221C163.323 508.303 158.264 507.955 156.59 505.859C162.747 503.307 189.359 505.794 197.539 504.369C198.336 504.23 198.997 502.344 199.506 501.354Z" fill="#FDFDFE"></path>
<path d="M186.16 231.648C188.067 232.221 187.391 231.973 189.047 233.318C189.159 235.544 183.667 241.306 181.731 243.748C169.311 259.415 157.463 275.364 146.98 292.385L144.593 291.818L143.948 290.719C147.282 280.254 178.359 240.993 186.16 231.648Z" fill="#FDFDFE"></path>
<path d="M118.382 684.508C119.553 684.588 121.157 684.476 121.79 685.563C124.409 690.064 133.642 707.409 133.44 712.052L130.922 711.544C127.616 708.005 118.34 689.291 118.382 684.508Z" fill="#FDFDFE"></path>
<path d="M90.0121 589.159L92.6281 589.819C94.8421 593.05 99.4723 615.601 98.8841 619.71C97.0412 619.175 97.6469 619.461 96.1251 618.353C94.011 613.524 89.4374 594.219 90.0121 589.159Z" fill="#FDFDFE"></path>
<path d="M170.124 770.732C174.274 771.169 186.832 789.2 189.918 793.533C190.5 794.351 189.508 795.516 189.061 796.397C185.946 795.006 172.398 777.931 170.135 774.198C169.103 772.497 169.564 772.491 170.124 770.732Z" fill="#FDFDFE"></path>
<path d="M113.209 351.994L115.916 353.057C116.829 355.448 108.703 376.006 107.272 380.372C105.164 379.667 105.936 380.313 104.573 378.811C104.162 373.581 110.894 357.87 113.209 351.994Z" fill="#FDFDFE"></path>
<path d="M87.8023 444.61C89.3511 444.821 89.2661 444.837 90.6503 445.592C91.8699 449.161 88.6752 468.216 88.1639 473.494C86.1766 473.103 86.8363 473.393 85.1242 472.37C83.6645 467.248 86.8687 450.818 87.8023 444.61Z" fill="#FDFDFE"></path>
<path d="M133.525 308.084C134.755 308.75 134.614 308.729 135.69 309.657C135.878 313.599 126.654 330.569 124.221 335.424C122.756 334.524 122.752 334.647 121.949 333.156C122.351 327.698 130.605 313.259 133.525 308.084Z" fill="#FDFDFE"></path>
<path d="M142.364 728.972C145.969 730.483 155.601 747.345 157.948 751.673C158.777 753.203 158.055 753.644 157.244 755.202C153.19 753.229 143.839 736.437 141.44 731.786C140.918 730.773 141.807 729.959 142.364 728.972Z" fill="#FDFDFE"></path>
<path d="M103.728 638.358C107.331 640.915 112.336 659.443 113.713 664.475C114.036 665.655 113.091 666.136 112.295 667.053C108.551 664.804 103.842 646.524 102.497 641.838C101.947 639.924 102.67 639.728 103.728 638.358Z" fill="#FDFDFE"></path>
<path d="M84.5724 541.399L86.9199 541.993C88.4202 545.529 90.6625 566.767 89.6897 570.313C88.5133 569.912 87.1183 569.718 86.7027 568.501C85.1472 563.945 83.2786 545.243 84.5724 541.399Z" fill="#FDFDFE"></path>
<path d="M97.9087 398.096C99.2916 398.42 99.6302 398.564 100.96 399.054C101.674 401.73 96.1562 422.27 95.1781 426.232C93.5604 425.728 93.6657 425.79 92.4595 424.601C91.7189 419.364 96.3909 403.862 97.9087 398.096Z" fill="#FDFDFE"></path>
<path d="M132.431 504.883C135.855 504.891 144.751 503.875 146.257 506.545L145.54 507.98C142.367 508.038 133.173 508.495 130.731 506.822L130.864 505.471L132.431 504.883Z" fill="#FDFDFE"></path>
<path d="M301.003 504.922C304.73 504.831 311.233 503.817 314.538 505.23C315.326 505.567 315.381 506.841 315.72 508.032C311.782 507.953 304.007 509.03 301.213 507.057L301.003 504.922Z" fill="#FDFDFE"></path>
<path d="M503.924 47.8298L507.027 47.7125C608.418 48.5867 699.872 78.902 781.377 139.8C797.956 152.186 810.796 163.91 826.029 177.855L826.927 178.876C822.963 184.366 806.027 201.677 800.481 206.18L799.079 205.067C797.198 203.056 795.632 200.865 793.062 200.109L791.738 200.53C791.518 204.467 794.173 205.863 796.962 208.294C768.363 236.396 741.004 265.704 712.901 294.295C709.084 298.178 704.745 303.18 700.62 306.624C687.659 300.863 672.787 293.154 659.967 286.791L589.975 252.093C567.005 240.792 544.914 227.055 518.827 226.461C515.138 226.377 510.118 226.662 506.641 225.902L503.927 226.73C477.304 231.795 439.888 253.393 414.031 266.226L311.233 317.532L309.04 318.758C298.54 306.84 279.046 289.001 267.058 276.904L227.644 237.221C221.425 231.017 215.126 224.701 208.795 218.604C207.326 217.189 206.57 217.043 204.625 216.855L203.095 216.142C202.307 213.888 202.388 215.035 203.061 212.574C201.577 210.346 181.33 191.202 177.078 186.568L178.246 185.316L182.969 180.729C248.407 117.466 323.653 75.0812 413.258 56.83C441.062 51.1676 475.538 47.3536 503.924 47.8298Z" fill="#07426B"></path>
<path d="M503.83 89.0556L507.181 88.7278C504.452 104.471 509.912 160.139 505.455 170.286L505.656 169.903L504.903 169.316C503.508 163.92 503.909 144.109 503.915 137.66L503.83 89.0556Z" fill="#FDFDFE"></path>
<path d="M503.924 47.8298L507.027 47.7125C506.918 52.541 506.072 82.9062 507.525 85.3913C501.844 85.9782 497.784 86.1266 492.142 85.5735C495.014 85.1579 500.81 85.1579 503.963 85.0797L503.924 47.8298Z" fill="#FDFDFE"></path>
<path d="M204.985 211.333C208.831 207.443 218.455 197.585 222.982 195.552L224.541 196.323L224.414 195.568L223.784 195.341L224.512 195.804C223.873 200.855 211.951 209.992 207.527 214.388C206.82 215.001 205.315 216.382 204.625 216.855L203.095 216.142C202.307 213.888 202.388 215.035 203.061 212.574L204.985 211.333Z" fill="#FDFDFE"></path>
<path d="M492.142 85.5734C497.784 86.1266 501.844 85.9782 507.525 85.3913C507.749 87.8413 508.112 86.9145 507.181 88.7277L503.83 89.0556C499.565 89.5021 479.861 90.9538 477.394 88.7021C477.465 86.5057 477.052 87.3678 478.436 85.9282C483.336 85.5977 487.222 85.5383 492.142 85.5734Z" fill="#FDFDFE"></path>
<path d="M503.927 226.73C503.82 222.553 503.251 216.579 505.192 212.981C507.271 215.269 506.683 222.586 506.641 225.902L503.927 226.73Z" fill="#FDFDFE"></path>
<path d="M528.858 85.7408C549.064 87.0508 575.182 89.5926 594.661 94.7962C596.008 96.3248 595.544 96.1548 595.582 98.7911C569.495 93.7007 556.071 92.6241 530.293 89.7127C528.653 88.3824 529.187 88.6455 528.858 85.7408Z" fill="#FDFDFE"></path>
<path d="M352.618 113.354C354.005 113.431 353.462 113.332 354.756 114.092L354.778 115.635C352.375 118.513 333.692 126.038 328.901 128.111C328.186 127.987 328.077 127.727 327.39 127.203L327.306 125.334C330.145 121.818 347.391 115.373 352.618 113.354Z" fill="#FDFDFE"></path>
<path d="M305.933 135.563C307.653 136.398 306.952 135.809 307.841 137.606C306.744 140.47 287.701 150.783 283.555 153.209C282.454 152.492 282.61 152.384 281.782 151.205L282.092 149.781C286.596 145.258 299.881 138.768 305.933 135.563Z" fill="#FDFDFE"></path>
<path d="M262.287 162.484C264.017 163.388 263.31 162.784 264.231 164.542C263.097 167.499 246.01 179.841 241.942 183.107C241.177 182.744 240.721 182.303 240.033 181.771L239.872 180.269C242.828 175.854 257.402 165.991 262.287 162.484Z" fill="#FDFDFE"></path>
<path d="M453.659 87.9992C454.756 87.9021 454.166 87.7982 455.325 88.6657L455.517 90.5464C453.936 92.419 431.98 95.2333 427.71 96.0279C426.015 95.5436 426.591 95.8512 425.312 94.606L425.525 93.5361C427.834 90.5922 448.77 88.6131 453.659 87.9992Z" fill="#FDFDFE"></path>
<path d="M402.231 97.2018L403.437 97.1802C404.624 98.6818 404.276 97.8696 404.313 99.726C402.104 102.484 382.462 106.758 377.3 108.409L376.163 108.329L375.189 107.183L375.33 105.948C378.622 102.891 396.342 98.8234 402.231 97.2018Z" fill="#FDFDFE"></path>
<path d="M752.045 165.926C754.996 167.214 772.61 180.61 775.701 184.24C776.125 184.737 775.234 186.263 774.844 187.221C771.606 186.151 754.178 172.064 750.948 169.318C750.641 167.189 750.599 168.285 752.045 165.926Z" fill="#FDFDFE"></path>
<path d="M615.736 100.187C621.263 101.178 638.175 106.076 643.478 109.073C644.421 109.604 644.124 110.736 644.227 112.276C640.93 111.988 619.925 105.902 616.256 103.397C615.489 102.874 615.772 101.512 615.736 100.187Z" fill="#FDFDFE"></path>
<path d="M709.474 138.573C714.527 140.909 729.718 149.895 733.795 153.881C734.588 154.656 734.002 155.429 733.621 156.95C730.617 156.149 712.813 145.091 709.055 142.613C708.236 140.802 708.638 141.091 709.474 138.573Z" fill="#FDFDFE"></path>
<path d="M664.263 116.662C669.813 118.341 684.887 125.085 689.994 128.623C690.967 129.297 690.536 130.153 690.508 131.913C687.466 131.532 667.616 122.548 663.899 119.946C663.302 119.527 664.013 117.703 664.263 116.662Z" fill="#FDFDFE"></path>
<path d="M504.326 178.896L506.137 179.808C507.675 183.668 506.978 201.777 506.358 206.5L504.675 205.391C503.159 201.686 503.692 183.465 504.326 178.896Z" fill="#FDFDFE"></path>
<path d="M256.277 129.363C259.494 129.535 259.498 129.11 261.062 130.744C261.237 132.775 260.687 133.714 259.967 135.611C257.691 135.128 256.737 135.18 255.223 133.441C255.079 130.728 254.884 132.069 256.277 129.363Z" fill="#07426B"></path>
<path d="M715.065 724.678L716.811 723.787C737.18 741.978 755.759 763.727 775.454 782.683C779.731 786.799 801.387 810.545 804.803 811.395L806.819 811.842C807.545 813.196 807.468 812.635 807.474 814.054L805.343 816.743C809.1 820.32 829.292 840.313 831.871 843.908C817.132 858.135 802.889 871.4 786.485 883.947C707.642 944.247 609.716 978.341 510.369 978.742C509.192 978.747 508.239 978.685 507.08 978.465L504.025 978.461C502.497 978.694 501.22 978.671 499.68 978.657C380.623 977.464 264.51 928.947 180.64 844.73L178.919 843.118C184.916 834.424 198.495 823.857 205.332 815.266C203.699 813.279 203.127 812.703 204.371 810.522C206.685 810.194 205.958 810.301 208.487 811.776C212.092 809.784 232.483 787.538 236.454 783.446L274.386 745.113L276.754 742.678C281.655 738.048 287.162 732.245 291.972 727.4L293.93 728.451C342.848 752.27 391.422 777.293 440.027 801.765C464.748 814.211 475.245 820.776 503.83 821.709L507.151 821.717C513.897 820.275 520.814 820.26 528.021 817.589C536.229 814.548 543.72 810.675 551.542 806.819L589.287 787.938L715.065 724.678Z" fill="#07426B"></path>
<path d="M503.83 821.709L507.151 821.718L507.179 886.545C507.186 892.792 508.066 919.911 505.362 923.415C503.151 920.348 503.843 833.184 503.83 821.709Z" fill="#FDFDFE"></path>
<path d="M503.996 942.348C497.2 942.058 475.674 942.396 471.74 938.606L472.747 937.586L471.831 938.699C473.799 936.856 474.254 937.242 477.652 937.272C485.381 937.34 496.21 939.124 503.598 937.956C504.754 936.234 504.469 936.2 504.646 933.953L505.566 933.74C505.995 934.842 506.783 937.541 507.904 937.859C513.256 939.371 531.385 935.658 535.085 938.159C534.131 942.864 512.086 942.053 506.946 942.242L503.996 942.348Z" fill="#FDFDFE"></path>
<path d="M804.803 811.395L806.819 811.842C807.545 813.196 807.468 812.635 807.475 814.054L805.343 816.743C801.588 820.452 790.542 832.325 786.03 832.505C786.458 828.335 798.902 816.936 802.488 813.392L804.803 811.395Z" fill="#FDFDFE"></path>
<path d="M205.332 815.266C203.699 813.279 203.127 812.703 204.371 810.522C206.685 810.195 205.958 810.301 208.487 811.776C209.267 813.156 208.978 812.912 210.077 813.971C213.153 817.052 225.213 828.146 226.041 830.981L224.735 832.557C221.984 831.794 209.441 819.176 207.171 816.587L205.332 815.266Z" fill="#FDFDFE"></path>
<path d="M503.996 942.348L506.946 942.242L507.08 978.465L504.025 978.461L503.996 942.348Z" fill="#FDFDFE"></path>
<path d="M584.925 929.754C586.358 931.31 585.905 930.373 585.94 932.818C583.076 935.717 562.697 938 557.728 938.698L556.288 937.645L556.442 936.146C558.636 933.872 579.739 930.815 584.925 929.754Z" fill="#FDFDFE"></path>
<path d="M767.74 845.207C769.503 847.029 769.225 846.028 769.27 848.084C765.913 853.055 751.987 862.355 746.678 866.17C744.901 864.24 745.379 865.307 744.828 863.038C745.897 861.139 764.816 847.416 767.74 845.207Z" fill="#FDFDFE"></path>
<path d="M725.632 875.471L727.302 875.706L728.167 877.034C726.463 881.367 708.705 889.884 703.832 892.464L702.61 892.137L701.869 890.512C703.361 887.355 721.007 878.14 725.632 875.471Z" fill="#FDFDFE"></path>
<path d="M632.431 917.403L634.097 917.23C635.526 918.332 635.111 917.615 635.374 919.365C632.52 923.322 615.527 926.793 609.955 928.195L608.174 928.583C606.788 927.377 607.264 928.122 607.046 926.114C608.895 923.829 627.734 918.898 632.431 917.403Z" fill="#FDFDFE"></path>
<path d="M679.976 899.156L681.636 898.996C682.905 900.204 682.613 899.457 682.714 901.202C679.626 904.966 662.408 910.928 656.732 913.061L654.89 912.563L654.71 910.997C656.395 908.469 675.762 901.02 679.976 899.156Z" fill="#FDFDFE"></path>
<path d="M422.522 929.586C431.17 931.333 441.627 932.459 449.783 934.548C450.955 936.187 450.494 936.148 450.324 938.729C444.381 937.664 424.814 935.742 421.932 931.951L422.522 929.586Z" fill="#FDFDFE"></path>
<path d="M282.244 873.897C286.697 874.279 304.502 885.442 308.694 888.84C309.278 889.312 308.553 890.95 308.355 891.688C305.052 891.243 285.863 879.979 282.664 876.918C281.773 876.065 282.177 875.532 282.244 873.897Z" fill="#FDFDFE"></path>
<path d="M373.196 916.373C381.605 918.477 392.332 921.627 400.434 924.484C401.788 926.031 401.322 925.888 401.373 928.536C394.54 926.755 379.808 923.587 373.505 919.659C372.793 919.215 373.156 917.639 373.196 916.373Z" fill="#FDFDFE"></path>
<path d="M327.38 897.458C332.809 899.247 347.785 906.058 353.155 908.499C354.334 910.154 353.883 909.98 353.659 912.599C345.807 909.524 334.217 905.296 327.158 901.337C326.346 899.681 326.768 899.793 327.38 897.458Z" fill="#FDFDFE"></path>
<path d="M241.147 844.206C243.554 844.554 261.843 858.421 265.007 861.177C265.503 861.61 264.805 863.491 264.566 864.474C261.163 863.812 243.653 850.685 241.069 847.263C240.403 846.381 240.881 845.665 241.147 844.206Z" fill="#FDFDFE"></path>
<path d="M452.638 561.918C468.999 568.636 487.555 578.139 503.897 584.888C503.863 590.737 503.236 605.85 505.099 610.73L505.838 611.088C507.876 608.395 507.105 590.364 507.074 586.156C546.846 604.36 587.953 621.409 627.38 639.741L551.229 676.627C538.836 682.679 526.478 688.823 514.026 694.75C512.923 695.276 508.299 697.084 507.656 695.121C505.154 687.502 508.96 653.131 505.973 648.57L504.743 648.496C503.241 651.7 503.972 687.319 503.937 694.268C463.748 674.531 422.541 655.291 382.625 635.395C396.121 621.486 409.01 607.738 422.859 594.089C426.172 590.823 450.934 561.22 452.638 561.918Z" fill="#07426B"></path>
<path d="M504.369 620.76L505.845 621.316C508.078 624.141 506.803 634.95 506.381 638.826L505.284 638.6C502.945 635.768 504.044 624.778 504.369 620.76Z" fill="#FDFDFE"></path>
<path d="M506.987 349.092C515.029 352.048 529.783 359.976 538.036 363.826C562.524 375.249 586.933 388.104 611.518 399.278C607.534 402.931 588.209 423.944 585.714 424.853C581.47 426.745 571.952 437.577 568.216 441.63C563.578 438.144 554.41 430.583 549.197 429.273L548.876 430.056C552.565 435.185 560.761 440.591 566.082 444.431C562.651 447.727 558.099 451.759 555.546 455.625L556.918 456.77C554.69 458.9 547.049 465.625 546.279 467.829L543.801 466.698L506.992 450.171C506.937 446.764 507.243 444.372 505.72 441.376L504.816 441.223C503.495 443.581 503.844 446.14 503.859 448.902C470.257 432.87 433.98 417.14 399.91 401.648C421.919 389.303 446.649 379.03 469.142 367.306C480.17 361.558 492.487 355.673 503.83 350.593L503.898 396.047C503.896 405.345 503.074 421.593 505.216 429.941L506.021 430.172L505.748 430.732L505.297 429.65L506.262 429.025C507.327 421.309 506.958 407.398 506.949 399.19L506.987 349.092Z" fill="#07426B"></path>
<path d="M295.711 721.77C286.623 718.087 277.666 713.018 268.865 709.002C251.403 700.887 234.284 693.181 227.872 673.51C213.345 628.953 244.436 596.92 289.486 603.616C309.639 606.611 320.938 613.292 338.295 621.606L376.13 639.784L378.297 640.959L466.781 683.469C473.213 686.593 498.569 699.721 503.924 701.344C506.027 702.282 505.923 701.992 507.513 703.504C512.797 703.67 528.909 695.017 534.645 692.251L581.208 669.446L614.814 653.131C620.97 650.151 629.33 646.412 635.028 642.903C659.638 668.294 685.836 693.871 710.75 719.343L592.748 778.766L554.111 798.175C536.963 806.747 526.653 813.163 507.223 814.653C507.184 806.88 506.941 798.157 507.132 790.463C506.804 789.013 506.784 788.981 506.282 787.626L503.97 787.15L503.923 814.898C480.109 815.448 466.296 807.657 445.981 797.337L410.188 779.184L297.632 722.905L295.711 721.77Z" fill="#07426B"></path>
<path d="M295.711 721.77C286.623 718.087 277.666 713.018 268.865 709.002C251.403 700.887 234.284 693.181 227.872 673.51C213.345 628.953 244.436 596.92 289.486 603.616C309.639 606.611 320.938 613.292 338.295 621.606L376.13 639.784C352.802 665.151 327.661 689.083 303.756 713.916C301.244 716.525 298.538 719.578 295.711 721.77Z" fill="#07426B"></path>
<path d="M503.924 701.344C506.027 702.282 505.923 701.992 507.513 703.504C506.66 707.063 506.956 712.739 506.858 716.569C506.535 729.475 508.232 744.088 505.679 756.631C502.451 742.783 503.893 716.337 503.924 701.344Z" fill="#FDFDFE"></path>
<path d="M504.101 761.308L505.931 761.072C508.278 764.051 506.829 776.292 506.56 780.652C503.256 778.517 504.268 765.736 504.101 761.308Z" fill="#FDFDFE"></path>
<path d="M503.97 787.15C503.664 780.888 503.117 767.058 504.101 761.308C504.268 765.736 503.256 778.517 506.56 780.652C507.424 782.846 507.722 788.128 507.132 790.463C506.804 789.013 506.784 788.981 506.282 787.626L503.97 787.15Z" fill="#07426B"></path>
<path d="M507.158 233.204C539.604 230.52 565.185 247.341 593.275 261.147L696.207 312.164L698.083 313.181L738.018 332.72C747.757 337.476 763.352 343.72 771.079 350.874C797.144 375.013 790.094 426.563 753.974 437.036C739.163 441.359 722.827 440.704 707.842 437.26C698.009 434.663 682.194 426.281 672.412 421.521L617.998 395.062L616.364 394.283C611.758 392.092 607.14 389.761 602.561 387.5L544.397 359.447C532.414 353.685 518.267 347.178 506.68 340.895C506.715 334.967 508.094 314.454 504.858 310.961C503.336 314.318 503.967 337.494 504.023 342.862C466.862 360.882 429.191 380.085 391.785 397.309L389.177 399.172C387.187 394.209 324.08 332.996 314.685 323.502L316.123 322.687C327.849 317.279 341.776 309.797 353.573 303.885L430.053 265.64C449.224 256.073 484.711 236.412 503.843 233.634C503.878 240.11 503.191 269.984 504.984 274.11L505.841 274.164C507.526 271.668 507.123 238.556 507.158 233.204Z" fill="#07426B"></path>
<path d="M698.083 313.181L738.018 332.72C747.757 337.476 763.352 343.72 771.079 350.875C797.144 375.013 790.094 426.563 753.974 437.036C739.163 441.359 722.827 440.705 707.842 437.26C698.009 434.663 682.194 426.281 672.412 421.521L617.998 395.062L664.789 347.217C675.631 336.097 687.012 323.846 698.083 313.181Z" fill="#07426B"></path>
<path d="M504.542 282.89L505.782 283.44C507.963 286.615 506.938 297.771 506.713 302.048C505.841 301.752 504.781 301.62 504.539 300.976C503.051 297.018 503.782 286.648 504.542 282.89Z" fill="#FDFDFE"></path>
<path d="M506.783 457.226L539.632 471.836L540.966 472.443C562.931 482.734 588.131 494.205 610.435 503.653C611.124 504.458 611.733 505.28 612.351 506.139C614.571 507.324 615.147 507.278 617.58 507.602C622.178 508.515 639.435 516.924 644.603 519.295L687.113 538.503L758.592 570.719C770.326 576.002 784.028 581.498 795.172 587.547C810.889 596.076 812.619 618.249 812.816 633.803C813.23 666.501 812.006 699.53 812.733 732.173C793.47 721.745 771.415 708.264 752.42 698.69C739.151 704.732 725.832 711.867 712.634 718.215L710.75 719.343C685.836 693.871 659.638 668.294 635.028 642.903L636.693 641.813C636.871 639.54 636.925 639.659 636.299 637.485C634.919 635.788 632.727 634.701 630.727 633.816C589.585 615.586 548.088 597.806 507.237 578.936L507.053 515.226C506.652 512.135 506.674 511.938 507.192 508.882L507.483 507.97C508.427 506.242 508.113 506.838 508.337 504.712L507.213 503.699C506.352 488.353 507.379 472.664 506.783 457.226Z" fill="#07426B"></path>
<path d="M506.783 457.226L539.632 471.836L540.966 472.443C536.128 477.589 513.434 501.406 509.144 504.526L508.337 504.712L507.213 503.699C506.353 488.353 507.379 472.664 506.783 457.226Z" fill="#07426B"></path>
<path d="M508.337 504.712L509.144 504.526C519.532 504.539 534.618 504.415 545.378 504.58C545.766 504.901 546.155 505.222 546.543 505.543L546.379 507.436C543.933 508.68 512.723 507.877 507.483 507.97C508.427 506.242 508.113 506.838 508.337 504.712Z" fill="#FDFDFE"></path>
<path d="M610.435 503.653C611.124 504.458 611.733 505.28 612.351 506.139C614.571 507.324 615.147 507.278 617.58 507.602C610.991 508.363 593.024 508.127 585.582 507.618C584.738 507.56 584.838 507.356 584.388 506.193C586.681 502.835 604.569 505.655 610.435 503.653Z" fill="#FDFDFE"></path>
<path d="M557.297 504.758C561.511 504.445 568.649 503.529 572.602 504.933C573.714 505.329 573.555 506.13 574.102 507.785C570.023 508.098 562.517 509.087 558.72 507.641C557.662 507.238 557.785 506.332 557.297 504.758Z" fill="#FDFDFE"></path>
<path d="M199.557 307.924L268.477 346.386C278.57 342.496 304.09 328.844 314.685 323.502C324.08 332.996 387.187 394.209 389.177 399.172C389.108 400.965 388.691 402.653 390.098 403.881C393.806 407.116 401.036 408.978 405.194 411.388C407.269 412.242 410.435 413.405 412.266 414.505L471.96 441.696C481.412 446.003 494.512 452.46 503.821 455.99L503.927 504.535C500.078 504.512 496.278 504.538 492.431 504.581C488.99 504.604 483.804 504.446 480.557 505.033L479.958 506.193C482.679 509.14 499.444 507.665 504.155 508.237L503.989 510.708L503.898 577.674C475.08 564.972 446.601 551.648 417.773 538.976C394.785 528.871 371.445 518.608 348.636 508.143C358.794 507.78 422.486 508.986 427.801 506.741C422.076 502.123 353.652 506.342 341.878 504.194C334.897 502.92 326.474 498.131 320.388 495.334L287.721 480.392C266.069 470.662 244.052 461.554 222.623 451.436C209.514 445.436 201.068 432.038 200.001 417.784C199.045 405.001 199.429 391.387 199.457 378.436L199.557 307.924Z" fill="#07426B"></path>
<path d="M412.266 414.505L471.96 441.696C481.412 446.003 494.512 452.46 503.821 455.99L503.927 504.535C501.339 503.765 496.6 499.989 494.545 498.005C466.962 471.371 439.926 444.141 412.81 417.032C412.629 416.191 412.447 415.349 412.266 414.505Z" fill="#07426B"></path>
<path d="M438.617 504.787C443.293 504.446 465.981 503.688 468.606 505.685L468.683 508.027C462.868 507.884 441.131 509.143 438.214 506.404L438.617 504.787Z" fill="#FDFDFE"></path>
<path d="M36.323 505.191C36.2596 506.536 36.1826 506.579 36.3891 507.892C26.1194 508.384 -29.7932 508.863 -35.7065 506.93L-36.0357 506.038C-32.5792 504.275 -28.2619 504.645 -24.4708 504.889C-4.84886 506.158 16.9209 503.591 36.323 505.191Z" fill="#FDFDFE"></path>
<path d="M503.854 985.752C505.99 986.182 505.264 986.312 507.201 985.856L507.13 1030.81C507.163 1035.78 508.301 1060.51 505.072 1062.9C503.275 1056.99 503.869 996.648 503.854 985.752Z" fill="#FDFDFE"></path>
<line x1="1197.04" y1="-184.479" x2="-184.479" y2="1197.04" stroke="#3D698C"></line>
<line x1="-184.479" y1="-185.186" x2="1197.04" y2="1196.34" stroke="#3D698C"></line>
<circle cx="507.278" cy="511.325" r="478.795" stroke="white" stroke-width="3"></circle>
</g>
<defs>
<clipPath id="SvgjsClipPath1005">
<rect width="1024" height="1024" fill="white"></rect>
</clipPath>
</defs>
</svg><style>@media (prefers-color-scheme: light) { :root { filter: none; } }
@media (prefers-color-scheme: dark) { :root { filter: none; } }
</style></svg>