<svg width="512" height="512" viewBox="0 0 512 512" fill="none" xmlns="http://www.w3.org/2000/svg">
<g clip-path="url(#clip0_33_466)">
<rect width="512" height="512" fill="#585858"/>
<g clip-path="url(#clip1_33_466)">
<rect width="512" height="512" transform="translate(0 1)" fill="#827171"/>
<rect y="1" width="512" height="512" fill="url(#paint0_radial_33_466)"/>
<path d="M250.965 142.856C259.612 141.907 280.54 143.575 286.612 148.538C298.379 158.155 267.847 161.579 263.708 161.801C255.156 162.803 234.053 161.174 228.037 156.153C216.315 146.37 247.306 143.129 250.965 142.856Z" fill="white"/>
<path d="M231.37 119.754C262.874 116.771 302.673 118.393 331.471 133.018C334.99 134.806 338.207 137.231 341.224 139.666C350.098 149.415 348.19 153.596 348.129 166.144L348.072 189.713L348.04 237.198C348.04 245.278 348.071 253.459 348.023 261.51C348 265.548 346.301 269.732 343.17 272.295C328.576 284.239 297.54 289.292 279.63 290.711C266.898 291.665 254.116 291.798 241.366 291.109C223.983 290.245 172.003 284.421 166.159 264.612C173.629 262.384 178.651 263.389 185.049 262.179L185.199 261.764C184.588 260.525 182.88 259.73 181.682 259.095C174.538 255.308 166.421 255.881 159.303 259.411C155.373 261.322 151.998 264.206 149.501 267.791C152.781 277.515 149.554 287.785 139.268 291.226C134.674 292.778 129.649 292.424 125.319 290.24C121.135 288.161 117.987 284.455 116.612 279.99C114.15 272.257 116.727 264.001 120.332 257.09C127.693 243.006 140.325 232.404 155.473 227.597C163.932 224.946 174.582 224.301 183.229 226.518C184.603 226.871 188.073 228.112 188.842 227.311C188.914 225.484 186.142 223.676 184.779 222.695C179.05 218.572 172.641 217.645 165.77 217.811L165.785 175.486C165.785 168.041 165.515 158.156 166.057 150.917C166.25 150.625 166.893 148.309 167.079 147.728C167.633 145.995 169.044 143.773 170.215 142.392C182.46 127.951 213.195 121.474 231.37 119.754ZM301.209 247.521C299.271 248.49 297.243 250.62 295.438 251.96C290.409 255.694 282.965 256.799 277.024 254.999C275.18 254.432 273.441 253.563 271.881 252.428C269.533 250.71 266.316 246.653 263.399 248.388C259.771 250.546 263.104 254.945 265.001 256.629C289.769 275.153 315.909 247.227 301.209 247.521ZM264.771 209.649C262.135 206.273 257.887 204.574 253.649 205.199C247.193 206.152 242.708 212.125 243.592 218.591C244.476 225.057 250.4 229.606 256.875 228.791C261.125 228.256 264.76 225.478 266.394 221.518C268.028 217.559 267.408 213.026 264.771 209.649ZM318.11 208.84C315.411 205.581 311.168 204.024 307.002 204.763C300.654 205.888 296.396 211.913 297.453 218.271C298.51 224.63 304.489 228.953 310.858 227.965C315.04 227.316 318.55 224.47 320.051 220.513C321.551 216.556 320.81 212.098 318.11 208.84ZM256.864 128.372C236.579 128.67 215.924 130.455 196.829 137.769C190.611 140.151 179.586 144.941 179.449 152.891C179.403 155.618 181.279 158.509 183.306 160.269C200.792 174.294 236.573 177.087 257.387 177.015C278.213 177.003 299.848 174.984 319.481 166.938C338.061 159.325 340.532 147.742 320.497 139.184C300.664 130.714 278.377 128.529 256.864 128.372Z" fill="white"/>
<path d="M165.79 288.03C174.468 308.426 224.804 313.617 244.02 314.507C267.908 315.613 335.967 313.496 348.037 288.58C349.728 310.668 341.653 325.563 322.032 336.201C317.839 332.667 313.144 330.11 307.744 329.039C305.568 328.607 301.518 328.28 299.454 328.952L299.311 329.329C300.127 330.354 305.216 333.082 306.92 334.22C311.952 337.579 317.709 342.053 321.436 346.827L321.638 347.09L322 347.5C323.688 350.073 328.031 355.873 329.843 358.204C336.461 352.553 344.152 347.76 353.023 347.092C358.278 346.697 363.769 350.12 363.63 355.682C363.451 362.793 356.228 370.726 351.241 375.417C343.649 382.557 334.082 392.735 323.003 393.033C315.158 392.924 311.369 387.122 307.766 381.259C306.314 378.896 303.865 375.534 302.118 373.437C297.556 368.022 292.219 363.31 286.28 359.453C269.427 348.713 260.86 351.185 242.822 349.646C221.064 347.789 193.538 341.804 177.905 325.539C166.595 313.773 165.549 303.233 165.79 288.03Z" fill="white"/>
<path d="M164.538 339.827C171.911 339.409 177.805 344.773 185.722 341.166C196.388 347.726 209.421 351.779 221.615 354.412C213.964 366.821 200.163 371.896 186.246 372.679C181.351 372.678 175.605 371.486 170.902 370.142C167.321 375.081 159.826 384.01 153.642 384.933C131.285 388.269 150.51 354.05 154.84 346.133C156.803 342.544 160.565 340.58 164.538 339.827Z" fill="white"/>
<path d="M383.388 218.044C401.364 216.602 408.467 234.74 400.951 249.206C394.217 262.165 385.367 269.146 371.811 274.089C365.869 275.964 360.841 276.908 354.638 277.079C356.406 267.706 355.794 254.495 355.129 245.008C360.635 244.559 365.087 244.322 369.09 240.019C367.907 229.152 371.999 220.375 383.388 218.044Z" fill="white"/>
</g>
</g>
<defs>
<radialGradient id="paint0_radial_33_466" cx="0" cy="0" r="1" gradientUnits="userSpaceOnUse" gradientTransform="translate(256 1.00002) rotate(90) scale(715 452.457)">
<stop stop-color="#2EBA6D"/>
<stop offset="0.875658" stop-color="#03302B"/>
<stop offset="1" stop-color="#042E29"/>
</radialGradient>
<clipPath id="clip0_33_466">
<rect width="512" height="512" fill="white"/>
</clipPath>
<clipPath id="clip1_33_466">
<rect width="512" height="512" fill="white" transform="translate(0 1)"/>
</clipPath>
</defs>
</svg>
