<svg width="512" height="512" viewBox="0 0 512 512" fill="none" xmlns="http://www.w3.org/2000/svg">
<g clip-path="url(#clip0_51_208)">
<rect width="512" height="512" fill="url(#paint0_radial_51_208)"/>
<path d="M255.675 71.095C257.272 71.2614 260.175 72.9771 261.561 73.8879C286.743 90.4336 300.514 121.342 296.308 151.304C293.163 173.71 280.205 194.808 262.369 208.45C263.964 225.946 265.001 244.505 265.948 262.028L256.868 262.024L246.163 261.958C247.119 244.31 248.424 226.406 249.635 208.769C238.876 199.426 231.056 190.697 224.352 177.942C214.45 159.206 212.343 137.274 218.493 116.973C224.488 97.5512 237.676 80.581 255.675 71.095ZM258.936 191.137C259.499 195.785 260.145 200.422 260.874 205.046C263.605 202.989 265.592 201.059 268.062 198.72C270.295 196.38 272.731 193.981 274.604 191.36C269.384 191.173 264.159 191.098 258.936 191.137ZM253.075 191.15C247.876 191.141 242.526 191.068 237.34 191.161C239.495 194.21 247.49 203.342 250.717 204.554L251.2 204.298L251.423 203.406C252.009 199.346 252.654 195.226 253.075 191.15ZM283.259 102.24C275.733 102.218 265.32 101.859 258.034 102.219C258.01 105.712 257.715 115.068 258.247 118.158C259.115 118.879 264.668 118.422 262.068 122.583C261.074 122.788 260.737 122.701 259.75 122.597C257.355 123.863 257.938 126.557 258.015 128.966C260.463 129.028 262.109 128.627 262.911 131.511C262.306 133.37 260.286 133.131 258.473 133.462C258.052 134.92 258.17 136.761 258.17 138.322L258.507 138.869C260.28 139.198 262.957 139.198 262.98 141.345C261.52 143.876 260.914 143.615 258.148 143.323L258.037 149.363C260.126 149.444 262.547 149.145 262.991 151.85C261.738 153.931 260.061 153.182 258.211 154.087C257.884 155.914 258.001 157.566 258.035 159.423C260.23 159.508 262.214 159.195 262.867 161.836C261.526 164.171 259.429 163.117 258.17 164.263C257.675 164.714 258.01 178.246 258.028 179.957L270.034 179.977L282.562 180.054C292.868 162.237 296.406 141.189 291.133 121.13C289.383 114.499 286.733 108.142 283.259 102.24ZM228.72 102.246C215.109 124.717 215.22 157.869 229.51 179.976L253.799 179.929C253.862 176.266 253.847 172.601 253.753 168.939L253.741 163.845C251.683 163.781 249.513 163.877 249.531 161.15C250.838 159.067 251.489 159.629 253.732 159.422C253.753 157.82 253.957 155.273 253.437 153.875C251.913 153.579 250.789 153.517 249.55 152.61C247.971 149.621 251.93 149.393 253.712 149.32L253.711 143.513C251.212 143.461 250.887 143.461 249.151 141.691C248.343 139.054 252.057 139.288 253.579 138.796C253.738 137.562 253.903 134.497 253.346 133.442C251.932 133.143 250.341 133.157 249.425 132.328C248.651 128.983 251.532 128.99 253.748 128.983C253.839 125.504 254.679 122.278 250.206 122.721C249.086 121.596 249.231 120.144 250.289 118.989C251.965 118.501 252.893 118.843 253.531 118.028C254.031 115.211 253.747 105.49 253.728 102.247L228.72 102.246ZM258.022 76.0237C258.056 80.7817 257.942 86.4885 258.155 91.1643C263.615 91.1469 269.778 91.271 275.181 91.0598C271.683 85.6462 263.508 79.2781 258.022 76.0237ZM253.682 76.2307C246.726 80.5348 242.483 84.2837 237.192 90.3225L237.086 90.8284L237.493 91.0979C242.908 91.1788 248.324 91.194 253.74 91.1418C253.77 89.1659 254.067 77.5405 253.682 76.2307Z" fill="white"/>
<path d="M108.842 160.205C111 160.192 113.161 160.188 115.316 160.317C135.814 161.755 154.904 171.348 168.373 186.981C185.635 206.852 190.288 229.257 188.63 254.795C194.067 260.013 200.295 265.131 205.988 270.115L227.788 289.573C223.037 294.163 218.345 298.815 213.713 303.526C212.029 301.754 210.321 299.751 208.691 297.91C198.987 286.818 189.355 275.664 179.795 264.446C163.081 265.303 151.808 265.234 135.385 259.118C110.453 249.833 91.607 229.23 86.012 202.771C83.58 191.27 83.8967 174.659 88.135 163.536C93.6722 161.07 102.781 160.457 108.842 160.205ZM169.648 249.491C166.582 252.464 160.56 258.049 158.088 261.145C161.002 261.258 163.917 261.325 166.833 261.345C170.826 261.292 174.177 261.221 178.156 260.893C176.731 258.779 171.208 250.45 169.648 249.491ZM108.509 187.44C102.618 193.208 95.9055 199.765 90.3372 205.813C98.4927 233.254 117.852 251.067 145.061 258.537C148.433 254.908 151.871 251.342 155.375 247.841C157.531 245.667 160.282 243.043 162.28 240.792C158.546 236.992 154.773 233.232 150.961 229.512C149.442 231.188 148.394 232.556 146.162 231.082C145.233 229.02 146.413 228.004 147.796 226.633C146.581 225.437 145.308 224.135 144.074 222.975C142.585 224.518 141.541 225.995 139.407 224.406C138.424 222.19 139.743 221.149 141.273 219.734L137.031 215.571C135.614 217.156 134.568 218.774 132.364 217.223C131.42 215.183 132.648 214.152 134.004 212.829C132.744 211.585 131.354 210.138 130.031 208.991C128.622 210.735 127.793 212.062 125.525 210.67C124.371 208.598 125.558 207.41 126.999 206.01C125.742 204.73 124.192 203.074 122.901 201.894C121.423 203.438 120.32 205.016 118.169 203.382C117.308 201.231 118.56 200.252 120 198.88C117.186 195.984 111.487 189.9 108.509 187.44ZM184.978 233.541C180.998 237.302 177.223 241.023 173.656 245.196L179.128 249.295C181.01 250.711 183.232 252.477 185.163 253.758C185.338 251.175 185.891 235.121 184.978 233.541ZM129.313 166.365C123.731 172.005 117.199 179.013 111.539 184.388C115.23 188.259 118.981 192.071 122.793 195.821C124.41 194.105 125.325 192.626 127.759 194.081C128.917 196.287 127.476 197.374 125.96 198.702L130.135 202.861C131.509 201.289 132.639 199.595 134.902 201.013C136.064 203.372 134.794 204.205 133.057 205.694C134.334 206.988 135.805 208.573 137.184 209.714C138.641 208.129 139.655 206.554 141.875 207.978C142.999 210.168 141.601 211.362 140.118 212.788L144.119 216.824C145.479 215.112 146.426 213.697 148.775 214.944C150.071 217.002 149.294 217.774 147.682 219.153L147.348 219.442C147.28 219.499 147.212 219.556 147.144 219.612L150.991 223.498C152.279 221.93 153.284 220.463 155.499 221.552C157.107 223.726 155.633 225.067 153.959 226.423C156.428 229.488 162.125 234.856 165.062 237.752C170.736 232.405 176.86 225.673 182.368 219.988C173.792 192.786 156.501 174.944 129.313 166.365ZM90.1594 168.592C88.2317 176.953 87.7573 183.618 88.2024 192.146C90.0186 190.305 91.9684 188.243 93.8245 186.474C96.0527 184.234 98.5379 181.827 100.698 179.553C97.9673 176.644 93.0443 171.141 90.1594 168.592ZM116.164 163.96C112.633 163.643 109.084 163.608 105.547 163.855C101.446 164.184 97.3718 164.794 93.3538 165.683C94.8782 167.3 102.837 176.114 103.959 176.176C107.735 172.363 112.66 167.775 116.164 163.96Z" fill="white"/>
<path d="M395.814 160.512C403.024 159.498 416.871 161.015 423.624 163.327C426.809 171.061 427.666 181.17 427.378 189.55C426.673 210.079 417.803 229.442 402.737 243.374C390.085 255.072 371.28 262.59 354.213 264.438C347.082 265.211 339.573 264.78 332.395 264.447L306.811 294.174C304.077 297.387 301.324 300.582 298.55 303.76L284.49 289.737C296.792 277.976 310.539 266.172 323.399 255.042C321.55 230.635 326.431 207.75 342.381 188.431C355.764 172.295 375.012 162.239 395.814 160.512ZM342.311 249.61C339.549 253.101 336.228 257.176 333.793 260.901C338.076 261.209 341.642 261.308 345.939 261.335C348.525 261.288 351.477 261.306 354.03 261.155C351.925 258.854 344.661 251.333 342.311 249.61ZM403.316 187.424C399.442 191.164 395.638 194.977 391.907 198.86C393.406 200.381 394.893 201.484 393.47 203.693C391.412 204.768 390.187 203.26 388.879 201.846C387.506 203.239 386.017 204.694 384.726 206.145C386.387 207.699 387.678 208.633 386.205 210.876C384.002 211.93 383.015 210.557 381.748 208.98L378.033 212.86C379.43 214.587 380.724 215.754 379.096 217.879C376.909 218.471 376.271 217.44 374.85 215.88L370.799 219.957C372.375 221.589 373.77 222.695 372.174 224.936C369.858 225.704 369.198 224.611 367.819 222.894C366.566 224.193 365.239 225.531 364.019 226.851C365.564 228.305 367.057 229.363 365.509 231.523C363.276 232.571 362.262 231.223 360.982 229.616L349.79 240.929L357.333 248.682C360.547 251.927 363.993 255.537 367.306 258.631C371.064 257.281 374.529 256.23 378.242 254.621C395.172 247.286 408.284 235.903 416.524 219.054C418.602 214.806 420.044 210.443 421.528 205.973C416.073 199.839 409.231 193.084 403.316 187.424ZM326.986 233.704C326.426 238.595 326.451 248.874 326.954 253.766C329.324 252.093 331.483 250.546 333.78 248.756C335.331 247.642 336.899 246.492 338.462 245.401C336.259 243.032 329.401 235.434 326.986 233.704ZM382.467 166.475C355.508 174.968 338.039 193.03 329.716 220.035C334.61 225.468 341.691 232.871 346.887 238.026C350.65 234.287 354.393 230.528 358.117 226.75C356.582 225.199 355.326 224.208 356.74 222.039C358.747 220.912 359.845 222.232 361.128 223.63L364.812 219.983C363.122 218.422 361.947 217.51 363.23 215.211C365.421 213.794 366.641 215.41 368.034 216.927L371.796 212.992C370.397 211.536 368.883 210.159 370.379 208.09C372.678 207.075 373.398 208.11 374.967 209.761C376.223 208.529 377.582 207.244 378.785 205.971C377.29 204.541 376.004 203.445 377.228 201.255C379.455 200.059 380.306 201.293 381.855 202.886L385.764 198.885C384.205 197.33 382.958 196.259 384.474 194.116C386.55 193.221 387.732 194.581 389.026 196.019C392.717 192.26 396.6 188.165 400.379 184.536C395.819 179.759 391.204 175.035 386.536 170.367C385.864 169.705 382.945 166.787 382.467 166.475ZM421.661 168.626C418.244 172.171 414.81 175.957 411.382 179.426C413.745 182.038 416.184 184.58 418.696 187.047L423.792 192.226C423.971 186.019 423.923 174.261 421.661 168.626ZM418.692 165.638C410.769 164.279 404.188 163.215 396.05 163.898C398.819 167.449 404.875 173.029 408.234 176.633C409.965 174.858 411.785 173.044 413.46 171.224L418.692 165.638Z" fill="white"/>
<path d="M298.538 359.78C301.103 362.135 301.395 369.339 301.967 373.227C312.009 384.596 323.925 395.93 334.153 407.242C337.089 410.489 345.448 418.572 347.273 421.948L346.933 422.537C344.504 422.122 341.138 418.518 339.358 416.747C334.107 411.193 326.993 405.11 321.391 399.757C313.794 392.495 305.895 384.543 297.998 377.679C295.519 377.153 284.941 376.449 284.529 374.089C285.9 372.244 288.183 370.284 289.854 368.598C292.76 365.667 295.649 362.728 298.538 359.78Z" fill="white"/>
<path d="M245.671 371.31C248.752 371.307 264.381 371.037 266.056 371.645C266.664 373.688 260.398 380.954 258.984 382.948C257.96 401.854 258.369 421.733 257.417 440.659C257.351 442.503 257.314 447.779 256.304 448.958L255.75 448.837C253.515 445.093 253.937 392.076 253.05 383.041C250.745 379.622 246.239 375.195 245.671 371.31Z" fill="white"/>
<path d="M213.422 359.987C214.555 360.503 226.187 372.657 227.613 374.326C225.934 377.233 216.064 376.186 212.889 378.739C211.527 379.834 210.413 381.107 209.148 382.291C205.013 386.156 200.922 390.068 196.875 394.027C189.079 401.556 180.951 408.695 173.244 416.269C171.314 418.115 167.679 421.954 165.1 422.342L164.863 421.963C166.23 418.695 177.658 407.521 180.916 404.127C190.815 393.877 200.644 383.557 210.401 373.169C210.947 369.247 211.375 363.093 213.422 359.987Z" fill="white"/>
<path d="M245.922 264.924L266.155 264.925L266.188 269.91L245.969 269.908L245.922 264.924Z" fill="white"/>
<path d="M245.863 287.802L266.09 287.793L266.19 292.749C259.646 292.891 252.389 292.724 245.802 292.697L245.863 287.802Z" fill="white"/>
<path d="M245.819 280.241C252.585 280.212 259.35 280.226 266.116 280.282C266.169 281.845 266.16 283.549 266.179 285.121C259.388 285.199 252.597 285.201 245.806 285.126L245.819 280.241Z" fill="white"/>
<path d="M245.856 363.552L266.142 363.531L266.112 368.401C259.345 368.521 252.577 368.515 245.81 368.382L245.856 363.552Z" fill="white"/>
<path d="M245.86 295.468C252.459 295.335 259.515 295.454 266.148 295.462L266.164 300.361C259.382 300.388 252.599 300.365 245.817 300.29L245.86 295.468Z" fill="white"/>
<path d="M245.831 272.629L266.153 272.614L266.158 277.401C259.514 277.544 252.47 277.384 245.798 277.343L245.831 272.629Z" fill="white"/>
<path d="M240.343 302.274C241.256 302.732 242.938 304.499 243.776 305.3C239.153 310.176 234.397 314.922 229.514 319.534C228.607 319.192 226.868 317.188 226.088 316.379C230.781 311.617 235.533 306.915 240.343 302.274Z" fill="white"/>
<path d="M250.656 323.341C251.902 324.169 262.949 335.689 264.657 337.486L261.435 340.53L261.389 340.549C260.059 340.319 249.045 328.367 247.458 326.651L250.656 323.341Z" fill="white"/>
<path d="M282.444 344.035C283.281 344.515 285.118 346.631 285.876 347.444C281.354 351.615 276.378 357.079 271.936 361.559C270.891 360.419 269.573 359.216 268.443 358.134C273.002 353.794 277.954 348.569 282.444 344.035Z" fill="white"/>
<path d="M271.829 302.297C273.345 303.342 284.139 314.484 286.023 316.391L282.701 319.713C277.823 315.097 273.095 310.322 268.525 305.396L271.829 302.297Z" fill="white"/>
<path d="M293.113 354.485C294.375 355.586 295.433 356.751 296.575 357.97C291.787 362.592 287.09 367.308 282.486 372.117C281.673 371.869 279.617 369.514 278.945 368.796C283.616 364.46 288.642 359.108 293.113 354.485Z" fill="white"/>
<path d="M234.941 296.944C235.984 297.498 237.574 299.289 238.473 300.21L224.2 314.447L220.86 311.088C224.792 306.802 230.653 301.305 234.941 296.944Z" fill="white"/>
<path d="M229.616 291.601C230.546 292.124 232.304 294.034 233.143 294.88C228.446 299.407 223.749 304.189 219.114 308.799L218.879 308.848C217.751 308.122 216.504 306.614 215.557 305.584C220.273 300.954 224.959 296.292 229.616 291.601Z" fill="white"/>
<path d="M277.179 296.945C278.127 297.618 281.912 301.628 282.88 302.625C285.65 305.468 288.457 308.274 291.299 311.043L287.994 314.4C283.606 310.438 277.928 304.495 273.881 300.225L277.179 296.945Z" fill="white"/>
<path d="M287.757 349.396C288.812 350.217 290.239 351.766 291.217 352.763C286.422 357.357 281.736 362.065 277.162 366.882C276.087 366.045 274.703 364.49 273.724 363.459L287.757 349.396Z" fill="white"/>
<path d="M261.335 312.72C265.647 317.477 270.927 322.463 275.551 326.979C274.415 328.11 273.153 329.274 271.986 330.386C271.221 329.012 259.926 318.156 257.971 316.204C259.167 314.719 259.965 313.994 261.335 312.72Z" fill="white"/>
<path d="M219.137 354.769C223.848 359.432 228.273 364.257 233.134 368.792L229.779 372.259C226.843 369.777 218.785 361.251 215.721 358.213C216.826 357.059 218.006 355.904 219.137 354.769Z" fill="white"/>
<path d="M282.456 291.588C283.477 292.362 286.396 295.481 287.413 296.514C290.459 299.602 293.524 302.672 296.608 305.723L293.285 309.08C288.589 304.342 283.859 299.638 279.094 294.97L282.456 291.588Z" fill="white"/>
<path d="M266.661 307.703C267.94 308.616 278.814 319.81 280.721 321.728L277.378 325.138C273.492 320.464 267.518 315.589 263.219 310.702L266.661 307.703Z" fill="white"/>
<path d="M229.496 344.365C231.037 345.174 241.588 356.275 243.676 358.389L240.635 361.347C239.048 361.203 228.238 349.52 226.365 347.587L229.496 344.365Z" fill="white"/>
<path d="M277.172 338.694C278.516 339.735 279.517 340.959 280.657 342.226C276.422 346.022 270.804 351.923 266.837 356.04C265.774 355.854 264.311 353.9 263.376 352.906C268 348.194 272.6 343.457 277.172 338.694Z" fill="white"/>
<path d="M255.963 318.034C260.581 322.8 265.232 327.534 269.914 332.236C269.064 333.264 267.843 334.393 266.871 335.346C265.529 335.157 254.603 323.38 252.833 321.429C253.784 320.308 254.949 319.118 255.963 318.034Z" fill="white"/>
<path d="M245.649 307.645C246.445 308.158 248.115 310.06 248.846 310.842L234.643 325.054C233.7 324.196 232.332 322.624 231.421 321.645C235.914 317.036 240.937 311.95 245.649 307.645Z" fill="white"/>
<path d="M224.425 349.723C225.61 350.509 236.472 361.672 238.326 363.55L235.004 366.993L221.156 352.948L224.425 349.723Z" fill="white"/>
<path d="M249.62 355.912C254.2 355.64 261.024 355.711 265.498 356.3L265.687 357.516C265.868 358.663 266.201 359.49 265.667 360.457C264.765 361.1 263.884 360.895 262.727 360.854C258.576 360.834 254.346 361.002 250.191 360.902C248.526 360.863 246.316 360.897 245.75 359.099C246.338 357.745 248.349 356.564 249.62 355.912Z" fill="white"/>
<path d="M234.83 339.055C236.196 340.062 246.686 351 248.707 353.054C247.692 354.121 246.53 355.232 245.479 356.281C243.31 354.711 233.839 344.713 231.583 342.32L234.83 339.055Z" fill="white"/>
<path d="M245.372 328.711C250.135 333.248 254.76 337.93 259.241 342.75L255.994 345.929C254.696 345.262 244.028 333.848 242.309 332.068C243.281 330.871 244.31 329.825 245.372 328.711Z" fill="white"/>
<path d="M250.426 313.029C251.777 313.921 252.743 315.177 253.828 316.404C249.275 320.592 244.414 325.624 239.963 330.034L239.574 330.038C238.486 329.409 237.363 327.911 236.503 326.907C241.217 322.355 245.858 317.729 250.426 313.029Z" fill="white"/>
<path d="M272.09 333.71C273.306 334.186 274.542 335.847 275.424 336.874C270.591 341.382 265.951 346.096 261.515 351.002C260.247 350.158 259.245 348.707 258.264 347.486C262.848 343.148 267.44 338.187 272.09 333.71Z" fill="white"/>
<path d="M239.934 334.025C241.041 334.511 252.36 346.3 253.876 347.818L250.636 351.081C246.054 346.42 241.439 341.795 236.788 337.204C237.793 336.09 238.863 335.073 239.934 334.025Z" fill="white"/>
<path d="M245.689 303.152C249.424 303.118 263.021 302.804 265.635 303.262L265.968 303.898C265.788 305.112 265.374 305.528 264.685 306.534C262.042 308.931 252.963 308 249.042 307.928C246.939 306.202 246.173 305.859 245.689 303.152Z" fill="white"/>
<path d="M256.32 349.123C257.361 349.958 259.42 352.157 260.452 353.209L256.305 353.285L252.087 353.155C253.43 351.742 254.885 350.444 256.32 349.123Z" fill="white"/>
<path d="M251.937 310.691C254.531 310.595 257.369 310.647 259.983 310.642L257.641 313.184L255.936 314.915C254.592 313.625 253.217 312.073 251.937 310.691Z" fill="white"/>
</g>
<defs>
<radialGradient id="paint0_radial_51_208" cx="0" cy="0" r="1" gradientUnits="userSpaceOnUse" gradientTransform="translate(256 2.07432e-05) rotate(90) scale(715 452.457)">
<stop stop-color="#2EBA48"/>
<stop offset="0.875658" stop-color="#03302B"/>
<stop offset="1" stop-color="#042E29"/>
</radialGradient>
<clipPath id="clip0_51_208">
<rect width="512" height="512" fill="white"/>
</clipPath>
</defs>
</svg>
