<svg width="512" height="512" viewBox="0 0 512 512" fill="none" xmlns="http://www.w3.org/2000/svg">
<rect width="512" height="512" fill="url(#paint0_linear_57_7)"/>
<path d="M251.318 176.916C255.173 176.294 262.494 176.9 266.308 177.523C284.054 180.295 298.153 189.661 308.593 204.186C341.043 249.335 301.662 303.016 273.03 338.399C270.446 341.592 263.975 349.155 260.926 351.281C257.506 352.849 253.75 353.136 250.649 350.398C247.352 347.32 244.137 343.757 241.252 340.262C210.835 303.419 169.617 246.161 206.879 200.176C218.037 186.405 234.118 178.401 251.318 176.916ZM283.585 239.509C282.608 224.464 269.726 213 254.681 213.791C244.782 214.31 235.926 220.119 231.499 228.996C227.073 237.873 227.759 248.447 233.296 256.676C238.832 264.906 248.363 269.519 258.247 268.753C273.267 267.59 284.561 254.555 283.585 239.509Z" fill="white"/>
<path d="M151.344 359.378C178.978 354.223 207.13 350.44 235.299 350.083C228.861 341.872 220.618 333.02 215.035 324.373C210.059 324.404 203.474 325.033 198.331 325.524L197.777 325.577C179.795 327.293 157.011 329.851 139.611 334.548L139.562 202.682C168.529 184.681 198.26 164.307 226.921 145.603L243.51 134.764C247.492 132.106 252.152 128.784 256.228 126.392C261.531 129.245 266.503 133.113 271.599 136.351C299.749 154.235 327.319 173.283 355.562 191.006C356.889 192.31 371.034 201.375 373.244 202.816L373.326 334.348C368.003 332.922 359.44 331.487 353.896 330.506C340.341 327.985 326.653 326.24 312.9 325.277C307.523 324.861 302.918 324.366 297.464 324.353L297.06 324.927C294.251 328.916 291.478 332.854 288.504 336.733C285.11 341.159 281.113 345.584 277.924 350.108C285.122 350.17 292.204 350.684 299.376 351.203L300.188 351.262C323.78 352.969 347.336 355.862 370.362 361.401C376.025 362.763 382.223 364.766 388.041 363.519C394.883 362.016 399.963 355.529 400.176 348.601C400.365 342.46 400.266 336.194 400.264 330.051L400.29 227.787C400.252 187.763 405.642 189.499 369.652 168.264C347.953 153.501 324.379 138.525 302.315 124.08L281.722 110.616C272.558 104.635 262.197 96.565 250.86 99.6996C241.608 102.258 229.548 111.624 221.266 117.085L186.043 139.959L148.669 164.406C140.107 169.915 128.543 176.993 120.379 182.856C118.404 184.246 116.704 185.992 115.365 188.004C113.686 190.539 112.51 194.264 112.425 197.282C112.11 208.443 112.236 219.853 112.241 231.013L112.207 330.357C112.206 340.294 110.059 355.034 119.615 361.315C129.426 367.763 141.025 360.748 151.344 359.378Z" fill="white"/>
<defs>
<linearGradient id="paint0_linear_57_7" x1="0" y1="0" x2="512" y2="512" gradientUnits="userSpaceOnUse">
<stop offset="0.00961538" stop-color="#0CD2BE"/>
<stop offset="0.504808" stop-color="#165C87"/>
<stop offset="1" stop-color="#3C4CF9"/>
</linearGradient>
</defs>
</svg>
